<svg width="1024" height="1024" viewBox="0 0 1024 1024" fill="none" xmlns="http://www.w3.org/2000/svg">
<rect width="1024" height="1024" fill="#E5E5E5"/>
<rect width="1024" height="1024" fill="#2E392B"/>
<path d="M467.413 85L334 353.702L484.921 428.636" stroke="#E8E8E8" stroke-width="47"/>
<path d="M569.08 200L485 248.37L536.86 338.517M672.8 380.294L661.965 386.528L588.721 428.664L536.86 338.517M536.86 338.517L620.94 290.147" stroke="#E8E8E8" stroke-width="47"/>
<path d="M275.973 531.384C266.998 503.913 239.404 463 206.235 463C190.436 463 203.499 500.069 204.641 505.64C213.033 546.593 220.536 587.428 225.044 629.018C229.389 669.102 235.263 711.699 228.471 751.838C224.486 775.394 212.059 813.497 181.766 812.092C137.685 810.048 120.546 757.286 113.542 721.87C108.894 698.365 107.88 674.196 110.194 650.378C111.595 635.968 115.898 625.205 119.599 611.723" stroke="#E8E8E8" stroke-width="47" stroke-linecap="round"/>
<path d="M291.754 630.373C243.881 630.373 196.535 631.972 148.929 637.387C137.241 638.716 125.492 640.415 113.701 640.415C112.927 640.415 110.71 640.283 111.39 640.654C115.293 642.783 121.198 643.536 125.338 644.719" stroke="#E8E8E8" stroke-width="47" stroke-linecap="round"/>
<path d="M319.012 716.45C335.803 716.255 349.807 713.696 363.804 703.698C375.364 695.441 387.801 682.103 384.048 666.557C381.457 655.824 369.576 644.103 357.747 646.791C343.258 650.084 339.115 676.387 335.909 688.077C329.992 709.649 322.968 731.119 320.447 753.432C318.523 770.457 316.964 789.936 330.808 802.687C348.72 819.185 371.871 803.487 387.396 791.688C405.524 777.911 415.753 765.001 422.305 743.708" stroke="#E8E8E8" stroke-width="47" stroke-linecap="round"/>
<path d="M514.121 644.719C499.01 638.907 482.633 634.641 466.699 640.654C456.772 644.4 454.768 655.963 454.186 665.282C452.767 687.977 474.462 692.703 490.768 701.626C513.152 713.873 545.504 732.479 538.749 763.076C534.838 780.787 515.417 795.095 497.065 792.485C469.076 788.505 465.977 752.332 465.344 730.797" stroke="#E8E8E8" stroke-width="47" stroke-linecap="round"/>
<path d="M578.679 643.284C615.978 639.167 653.698 635.813 691.217 634.756C693.948 634.68 699.594 636.441 699.347 633.72C698.81 627.819 671.302 620.42 667.626 618.896" stroke="#E8E8E8" stroke-width="47" stroke-linecap="round"/>
<path d="M631.76 562.946C624.367 600.31 617.916 638.225 615.501 676.281C614.417 693.358 614.281 710.587 614.784 727.688C615.259 743.847 615.289 762.044 621.08 777.422C625.186 788.323 636.818 791.256 646.027 784.117C664.025 770.163 674.679 746.978 677.668 725.058" stroke="#E8E8E8" stroke-width="47" stroke-linecap="round"/>
<path d="M743.661 587.334C743.007 586.664 721.103 566.134 731.068 566.134C738.93 566.134 740.979 572.493 742.226 578.726" stroke="#E8E8E8" stroke-width="47" stroke-linecap="round"/>
<path d="M758.007 644.719C754.537 682.234 752.557 721.456 756.572 759.011C756.923 762.292 758.044 771.693 759.123 768.575C762.346 759.264 759.442 743.061 759.442 733.666" stroke="#E8E8E8" stroke-width="47" stroke-linecap="round"/>
<path d="M815.392 620.33C811.813 650.641 808.284 681.083 809.813 711.668C810.432 724.057 815.111 735.746 816.747 748.012C818.585 761.797 816.748 720.124 818.5 706.328C820.904 687.402 824.945 666.766 835.556 650.537C841.717 641.116 848.838 633.231 860.662 632.126C879.569 630.359 892.181 649.939 898.281 665.282C907.266 687.88 908.329 712.109 909.758 736.057C910.136 742.387 907.312 756.474 914.381 746.577" stroke="#E8E8E8" stroke-width="47" stroke-linecap="round"/>
</svg>
