<svg width="853" height="762" viewBox="0 0 853 762" fill="none" xmlns="http://www.w3.org/2000/svg">
<path d="M382.413 11L249 279.702L399.921 354.636" stroke="#252525" stroke-width="47"/>
<path d="M484.08 126L400 174.37L451.86 264.517M587.8 306.294L576.965 312.528L503.721 354.664L451.86 264.517M451.86 264.517L535.94 216.147" stroke="#252525" stroke-width="47"/>
<path d="M190.973 457.384C181.998 429.913 154.404 389 121.235 389C105.436 389 118.499 426.069 119.641 431.64C128.033 472.593 135.536 513.428 140.044 555.018C144.389 595.102 150.263 637.699 143.471 677.838C139.486 701.394 127.059 739.497 96.7663 738.092C52.6846 736.048 35.5455 683.286 28.5419 647.87C23.8938 624.365 22.8802 600.196 25.1945 576.378C26.5947 561.968 30.8983 551.205 34.5992 537.723" stroke="#252525" stroke-width="47" stroke-linecap="round"/>
<path d="M206.754 556.373C158.881 556.373 111.535 557.972 63.9293 563.387C52.2409 564.716 40.4917 566.415 28.7013 566.415C27.9268 566.415 25.71 566.283 26.39 566.654C30.2929 568.783 36.1983 569.536 40.3377 570.719" stroke="#252525" stroke-width="47" stroke-linecap="round"/>
<path d="M234.012 642.45C250.803 642.255 264.807 639.696 278.804 629.698C290.364 621.441 302.801 608.103 299.048 592.557C296.457 581.824 284.576 570.103 272.747 572.791C258.258 576.084 254.115 602.387 250.909 614.077C244.992 635.649 237.968 657.119 235.447 679.432C233.523 696.457 231.964 715.936 245.808 728.687C263.72 745.185 286.871 729.487 302.396 717.688C320.524 703.911 330.753 691.001 337.305 669.708" stroke="#252525" stroke-width="47" stroke-linecap="round"/>
<path d="M429.121 570.719C414.01 564.907 397.633 560.641 381.699 566.654C371.772 570.4 369.768 581.963 369.186 591.282C367.767 613.977 389.462 618.703 405.768 627.626C428.152 639.873 460.504 658.479 453.749 689.076C449.838 706.787 430.417 721.095 412.065 718.485C384.076 714.505 380.977 678.332 380.344 656.797" stroke="#252525" stroke-width="47" stroke-linecap="round"/>
<path d="M493.679 569.284C530.978 565.167 568.698 561.813 606.217 560.756C608.948 560.68 614.594 562.441 614.347 559.72C613.81 553.819 586.302 546.42 582.626 544.896" stroke="#252525" stroke-width="47" stroke-linecap="round"/>
<path d="M546.76 488.946C539.367 526.31 532.916 564.225 530.501 602.281C529.417 619.358 529.281 636.587 529.784 653.688C530.259 669.847 530.289 688.044 536.08 703.422C540.186 714.323 551.818 717.256 561.027 710.117C579.025 696.163 589.679 672.978 592.668 651.058" stroke="#252525" stroke-width="47" stroke-linecap="round"/>
<path d="M658.661 513.334C658.007 512.664 636.103 492.134 646.068 492.134C653.93 492.134 655.979 498.493 657.226 504.726" stroke="#252525" stroke-width="47" stroke-linecap="round"/>
<path d="M673.007 570.719C669.537 608.234 667.557 647.456 671.572 685.011C671.923 688.292 673.044 697.693 674.123 694.575C677.346 685.264 674.442 669.061 674.442 659.666" stroke="#252525" stroke-width="47" stroke-linecap="round"/>
<path d="M730.392 546.33C726.813 576.641 723.284 607.083 724.813 637.668C725.432 650.057 730.111 661.746 731.747 674.012C733.585 687.797 731.748 646.124 733.5 632.328C735.904 613.402 739.945 592.766 750.556 576.537C756.717 567.116 763.838 559.231 775.662 558.126C794.569 556.359 807.181 575.939 813.281 591.282C822.266 613.88 823.329 638.109 824.758 662.057C825.136 668.387 822.312 682.474 829.381 672.577" stroke="#252525" stroke-width="47" stroke-linecap="round"/>
</svg>
